<?xml version="1.0" encoding="UTF-8" standalone="no"?>
<svg width="190px" height="47px" viewBox="0 0 190 47" version="1.1" xmlns="http://www.w3.org/2000/svg" xmlns:xlink="http://www.w3.org/1999/xlink" xmlns:sketch="http://www.bohemiancoding.com/sketch/ns">
    <!-- Generator: Sketch 3.0.4 (8053) - http://www.bohemiancoding.com/sketch -->
    <title>Slice 2</title>
    <desc>Created with Sketch.</desc>
    <defs></defs>
    <g id="Page-1" stroke="none" stroke-width="1" fill="none" fill-rule="evenodd" sketch:type="MSPage">
        <path d="M62.9792956,27.5119943 C63.4191,27.0862263 63.6389989,26.5177642 63.6389989,25.8065912 L67.3586025,25.8065912 L67.4007112,25.8908086 C67.4381414,27.4254452 66.860322,28.7097483 65.6672356,29.7437565 C64.4741492,30.7777647 62.9933407,31.294761 61.2247656,31.294761 C58.9602409,31.294761 57.2150858,30.57892 55.989248,29.1472163 C54.7634103,27.7155127 54.1505006,25.8767836 54.1505006,23.6309739 L54.1505006,23.2098867 C54.1505006,20.9734346 54.7610709,19.1347056 55.9822299,17.6936444 C57.2033889,16.2525832 58.9462046,15.5320634 61.2107294,15.5320634 C63.0822374,15.5320634 64.5911181,16.0654352 65.7374168,17.1321948 C66.8837155,18.1989544 67.4381414,19.6025643 67.4007112,21.3430668 L67.3726388,21.4272843 L63.6389989,21.4272843 C63.6389989,20.6412509 63.4237787,19.9885722 62.9933318,19.4692288 C62.562885,18.9498853 61.9686901,18.6902174 61.2107294,18.6902174 C60.1252547,18.6902174 59.3602873,19.1113004 58.9158041,19.953479 C58.4713209,20.7956577 58.2490827,21.881116 58.2490827,23.2098867 L58.2490827,23.6309739 C58.2490827,24.9878173 58.4713209,26.0802937 58.9158041,26.908436 C59.3602873,27.7365783 60.1299334,28.1506433 61.2247656,28.1506433 C61.9546537,28.1506433 62.5394912,27.9377624 62.9792956,27.5119943 Z M69.0990963,23.2660317 C69.0990963,21.001507 69.7307208,19.1464025 70.9939887,17.7006625 C72.2572566,16.2549226 74.0070904,15.5320634 76.2435425,15.5320634 C78.4893521,15.5320634 80.2485433,16.2525832 81.5211688,17.6936444 C82.7937942,19.1347056 83.4300974,20.9921494 83.4300974,23.2660317 L83.4300974,23.5607927 C83.4300974,25.8440326 82.7961336,27.7038158 81.5281869,29.1401982 C80.2602402,30.5765806 78.5080671,31.294761 76.271615,31.294761 C74.0258053,31.294761 72.2689535,30.5765806 71.0010068,29.1401982 C69.7330601,27.7038158 69.0990963,25.8440326 69.0990963,23.5607927 L69.0990963,23.2660317 Z M73.1836422,23.5607927 C73.1836422,24.9457087 73.4269345,26.0568999 73.9135266,26.8943998 C74.4001187,27.7318996 75.1861403,28.1506433 76.271615,28.1506433 C77.329017,28.1506433 78.1033418,27.7295603 78.5946127,26.8873817 C79.0858836,26.045203 79.3315153,24.9363512 79.3315153,23.5607927 L79.3315153,23.2660317 C79.3315153,21.9185459 79.0835442,20.8190514 78.5875946,19.9675153 C78.091645,19.1159791 77.3103021,18.6902174 76.2435425,18.6902174 C75.1861405,18.6902174 74.4118156,19.1183185 73.9205448,19.9745334 C73.4292739,20.8307483 73.1836422,21.9279035 73.1836422,23.2660317 L73.1836422,23.5607927 Z M89.7604417,15.8127882 L89.9288766,17.8199705 C90.4154687,17.0900824 91.026039,16.5262991 91.7606059,16.1286036 C92.4951728,15.7309082 93.3443569,15.5320634 94.3081835,15.5320634 C95.2813677,15.5320634 96.1141763,15.7472836 96.8066342,16.1777305 C97.4990922,16.6081773 98.0231066,17.2585166 98.3786931,18.1287678 C98.8465701,17.3146618 99.4548011,16.6783586 100.203404,16.2198392 C100.952008,15.7613197 101.831603,15.5320634 102.842217,15.5320634 C104.339424,15.5320634 105.520796,16.0490598 106.386368,17.0830679 C107.251941,18.1170761 107.68472,19.6914587 107.68472,21.8062627 L107.68472,31 L103.586138,31 L103.586138,21.7922265 C103.586138,20.6412491 103.39899,19.8411914 103.024689,19.3920294 C102.650387,18.9428675 102.093622,18.7182899 101.354376,18.7182899 C100.774209,18.7182899 100.271248,18.8469542 99.8454802,19.1042865 C99.4197121,19.3616189 99.0805064,19.7195394 98.8278528,20.1780589 C98.8278528,20.3558521 98.8325315,20.5079099 98.841889,20.6342367 C98.8512466,20.7605635 98.8559253,20.8892277 98.8559253,21.0202333 L98.8559253,31 L94.7713794,31 L94.7713794,21.7922265 C94.7713794,20.6693217 94.5842314,19.876282 94.2099298,19.4130838 C93.8356282,18.9498856 93.2741842,18.7182899 92.525581,18.7182899 C91.9734861,18.7182899 91.4892407,18.8235607 91.0728302,19.0341053 C90.6564196,19.24465 90.3125352,19.5417474 90.0411665,19.9254066 L90.0411665,31 L85.9566206,31 L85.9566206,15.8127882 L89.7604417,15.8127882 Z M114.632659,15.8127882 L114.801094,17.8199705 C115.287686,17.0900824 115.898256,16.5262991 116.632823,16.1286036 C117.36739,15.7309082 118.216574,15.5320634 119.180401,15.5320634 C120.153585,15.5320634 120.986394,15.7472836 121.678852,16.1777305 C122.37131,16.6081773 122.895324,17.2585166 123.250911,18.1287678 C123.718788,17.3146618 124.327019,16.6783586 125.075622,16.2198392 C125.824225,15.7613197 126.703821,15.5320634 127.714435,15.5320634 C129.211641,15.5320634 130.393013,16.0490598 131.258586,17.0830679 C132.124158,18.1170761 132.556938,19.6914587 132.556938,21.8062627 L132.556938,31 L128.458356,31 L128.458356,21.7922265 C128.458356,20.6412491 128.271208,19.8411914 127.896906,19.3920294 C127.522604,18.9428675 126.965839,18.7182899 126.226593,18.7182899 C125.646426,18.7182899 125.143466,18.8469542 124.717698,19.1042865 C124.29193,19.3616189 123.952724,19.7195394 123.70007,20.1780589 C123.70007,20.3558521 123.704749,20.5079099 123.714106,20.6342367 C123.723464,20.7605635 123.728143,20.8892277 123.728143,21.0202333 L123.728143,31 L119.643597,31 L119.643597,21.7922265 C119.643597,20.6693217 119.456449,19.876282 119.082147,19.4130838 C118.707846,18.9498856 118.146402,18.7182899 117.397798,18.7182899 C116.845704,18.7182899 116.361458,18.8235607 115.945048,19.0341053 C115.528637,19.24465 115.184753,19.5417474 114.913384,19.9254066 L114.913384,31 L110.828838,31 L110.828838,15.8127882 L114.632659,15.8127882 Z M142.424415,31.294761 C140.23475,31.294761 138.484916,30.5929561 137.174861,29.189325 C135.864805,27.785694 135.209787,26.0031093 135.209787,23.8415176 L135.209787,23.2800679 C135.209787,21.0249008 135.829715,19.1674569 137.069589,17.7076806 C138.309463,16.2479044 139.972741,15.5227059 142.059472,15.5320634 C144.108774,15.5320634 145.699532,16.1496518 146.831794,17.3848471 C147.964056,18.6200424 148.530179,20.2903383 148.530179,22.3957848 L148.530179,24.627547 L139.462768,24.627547 L139.434695,24.7117644 C139.509556,25.7130212 139.844083,26.5364724 140.438287,27.1821427 C141.03249,27.827813 141.839566,28.1506433 142.859538,28.1506433 C143.767219,28.1506433 144.52049,28.0594086 145.119373,27.8769366 C145.718255,27.6944645 146.373273,27.4067245 147.084446,27.0137078 L148.193309,29.540231 C147.575712,30.0455382 146.766296,30.4642818 145.76504,30.7964745 C144.763783,31.1286672 143.650252,31.294761 142.424415,31.294761 Z M142.059472,18.6902174 C141.301512,18.6902174 140.702638,18.9802968 140.262834,19.5604643 C139.823029,20.1406318 139.551665,20.9032599 139.448732,21.8483715 L139.49084,21.9185527 L144.515814,21.9185527 L144.515814,21.5536104 C144.515814,20.6833592 144.312291,19.9885722 143.905238,19.4692288 C143.498185,18.9498853 142.882936,18.6902174 142.059472,18.6902174 Z M154.664016,15.8127882 L154.846487,17.9884054 C155.351794,17.2117296 155.974061,16.6081773 156.713307,16.1777305 C157.452553,15.7472836 158.280683,15.5320634 159.197721,15.5320634 C160.732358,15.5320634 161.930105,16.0139695 162.790999,16.9777961 C163.651893,17.9416228 164.082333,19.4528429 164.082333,21.5115017 L164.082333,31 L159.969715,31 L159.969715,21.5255379 C159.969715,20.5055661 159.763852,19.7827069 159.35212,19.3569388 C158.940388,18.9311708 158.318121,18.7182899 157.4853,18.7182899 C156.942563,18.7182899 156.455978,18.8282394 156.025531,19.0481416 C155.595084,19.2680438 155.234824,19.5791773 154.944741,19.9815515 L154.944741,31 L150.846159,31 L150.846159,15.8127882 L154.664016,15.8127882 Z M172.012809,12.0931846 L172.012809,15.8127882 L174.567404,15.8127882 L174.567404,18.6902174 L172.012809,18.6902174 L172.012809,26.4241857 C172.012809,27.0137108 172.134455,27.4347938 172.377751,27.6874473 C172.621047,27.9401009 172.948556,28.0664258 173.360288,28.0664258 C173.575511,28.0664258 173.76032,28.0547291 173.914719,28.0313352 C174.069119,28.0079414 174.249249,27.9681724 174.455114,27.9120272 L174.80602,30.8736738 C174.394289,31.0140369 173.99192,31.1193077 173.598904,31.1894892 C173.205887,31.2596708 172.780125,31.294761 172.321606,31.294761 C170.908617,31.294761 169.82082,30.9064289 169.05818,30.1297531 C168.295541,29.3530773 167.914227,28.1225792 167.914227,26.438222 L167.914227,18.6902174 L165.696501,18.6902174 L165.696501,15.8127882 L167.914227,15.8127882 L167.914227,12.0931846 L172.012809,12.0931846 Z M185.389345,26.8172005 C185.389345,26.3680385 185.171786,25.9797064 184.73666,25.6521925 C184.301535,25.3246786 183.494459,25.0345992 182.315409,24.7819456 C180.518761,24.4170016 179.164278,23.8766117 178.251917,23.1607599 C177.339557,22.4449081 176.883384,21.4693992 176.883384,20.2342038 C176.883384,18.9241482 177.433131,17.812957 178.532642,16.9005968 C179.632153,15.9882367 181.103604,15.5320634 182.94704,15.5320634 C184.884051,15.5320634 186.425682,15.9858973 187.571981,16.8935787 C188.718279,17.8012601 189.268027,18.9475416 189.221239,20.3324575 L189.193167,20.416675 L185.234947,20.416675 C185.234947,19.8084349 185.040781,19.3124927 184.652443,18.9288335 C184.264105,18.5451744 183.695643,18.3533477 182.94704,18.3533477 C182.282654,18.3533477 181.760979,18.5147628 181.381999,18.837598 C181.003019,19.1604331 180.813531,19.5651406 180.813531,20.0517327 C180.813531,20.5196097 181.012376,20.9032631 181.410071,21.2027044 C181.807767,21.5021457 182.614843,21.7688316 183.831323,22.0027701 C185.702831,22.3770717 187.092405,22.9268189 188.000086,23.6520283 C188.907768,24.3772377 189.361601,25.3761401 189.361601,26.6487656 C189.361601,28.0149664 188.776764,29.1308364 187.607071,29.9964088 C186.437379,30.8619813 184.893408,31.294761 182.975112,31.294761 C180.953884,31.294761 179.356107,30.7824434 178.181736,29.7577928 C177.007365,28.7331421 176.44826,27.5658065 176.504406,26.2557508 L176.532478,26.1715334 L180.280154,26.1715334 C180.308227,26.9856394 180.574913,27.5751556 181.08022,27.9400997 C181.585527,28.3050437 182.245224,28.487513 183.05933,28.487513 C183.81729,28.487513 184.39511,28.3377946 184.792805,28.0383533 C185.190501,27.7389121 185.389345,27.3318652 185.389345,26.8172005 L185.389345,26.8172005 Z" id="za-comments" fill="#008080" sketch:type="MSShapeGroup"></path>
        <path d="M24.1669785,31 C24.0172578,30.653771 23.8885936,30.2888324 23.7809819,29.9051733 C23.6733702,29.5215141 23.5961716,29.1285033 23.5493839,28.7261291 C23.1282946,29.4653748 22.5738687,30.0782845 21.8860895,30.5648766 C21.1983103,31.0514686 20.3771984,31.294761 19.4227293,31.294761 C17.8319475,31.294761 16.6061281,30.8853748 15.7452344,30.06659 C14.8843407,29.2478053 14.4539003,28.1319353 14.4539003,26.7189468 C14.4539003,25.2310979 15.0270411,24.0777984 16.1733398,23.2590136 C17.3196384,22.4402288 18.9922736,22.0308426 21.1912956,22.0308426 L23.4792027,22.0308426 L23.4792027,20.8237259 C23.4792027,20.0938378 23.287376,19.5277151 22.9037169,19.1253409 C22.5200577,18.7229667 21.953935,18.5217826 21.2053318,18.5217826 C20.5409465,18.5217826 20.0286288,18.6831977 19.6683635,19.0060328 C19.3080982,19.328868 19.1279683,19.7756838 19.1279683,20.3464938 L15.1697486,20.3324575 L15.1557124,20.2482401 C15.0902096,18.9662571 15.6469749,17.8597446 16.8260249,16.9286693 C18.005075,15.9975941 19.5537247,15.5320634 21.4720204,15.5320634 C23.2873832,15.5320634 24.7611737,15.9929154 25.893436,16.9146331 C27.0256984,17.8363508 27.5918211,19.1487261 27.5918211,20.8517984 L27.5918211,27.1259977 C27.5918211,27.8371708 27.6456261,28.5062249 27.7532378,29.1331801 C27.8608495,29.7601353 28.0316221,30.3824023 28.2655606,31 L24.1669785,31 Z M20.4193024,28.2629332 C21.139833,28.2629332 21.7808149,28.0851426 22.3422673,27.7295561 C22.9037197,27.3739695 23.2826944,26.9622439 23.4792027,26.4943669 L23.4792027,24.3468222 L21.1912956,24.3468222 C20.3210444,24.3468222 19.6613477,24.5643817 19.2121857,24.9995074 C18.7630238,25.434633 18.5384462,25.9609867 18.5384462,26.5785844 C18.5384462,27.0838915 18.7068794,27.4909384 19.0437509,27.7997373 C19.3806223,28.1085361 19.8391349,28.2629332 20.4193024,28.2629332 Z M5.14787316,27.8558822 L12.6712979,27.8558822 L12.6712979,31 L0.0527180072,31 L0.0527180072,28.5857667 L7.28138166,18.9849785 L0.277297849,18.9849785 L0.277297849,15.8127882 L12.4326818,15.8127882 L12.4326818,18.1568403 L5.14787316,27.8558822 Z" id="Path" fill="#008080" sketch:type="MSShapeGroup"></path>
        <path d="M51,0 L31,26.8571429 L37.6666667,26.8571429 L31,47 L51,20.1428571 L44.3333333,20.1428571 L51,0 L51,0 Z" id="Path-3" fill="#FAC832" sketch:type="MSShapeGroup"></path>
    </g>
</svg>